<svg width="14" height="24" viewBox="0 0 14 24" fill="none" xmlns="http://www.w3.org/2000/svg">
<path fill-rule="evenodd" clip-rule="evenodd" d="M2.24446e-05 11.6693C2.24754e-05 10.8588 0.296579 10.0831 0.823042 9.52838L9.06296 0.801178C9.31152 0.536344 9.60525 0.329184 9.92692 0.191838C10.2486 0.054492 10.5918 -0.010278 10.9363 0.00132326C11.2808 0.0129245 11.6198 0.100664 11.9334 0.2594C12.247 0.418136 12.5288 0.644676 12.7624 0.925746C13.2391 1.49625 13.4946 2.25152 13.4741 3.02892C13.4535 3.80632 13.1584 4.54366 12.6523 5.08215L6.4344 11.6693L12.6523 18.2556C13.1584 18.7942 13.4535 19.5317 13.4741 20.3092C13.4947 21.0868 13.2391 21.8422 12.7624 22.4128C12.5288 22.6938 12.2469 22.9203 11.9333 23.079C11.6197 23.2376 11.2807 23.3253 10.9361 23.3368C10.5916 23.3483 10.2485 23.2835 9.92681 23.1461C9.60516 23.0087 9.31147 22.8014 9.06296 22.5365L0.823041 13.8102C0.562202 13.5338 0.354743 13.2015 0.213263 12.8335C0.0717832 12.4654 -0.00076515 12.0694 2.24446e-05 11.6693Z" fill="black"/>
</svg>
