<svg width="22" height="22" viewBox="0 0 22 22" fill="none" xmlns="http://www.w3.org/2000/svg">
<path d="M21.7333 13.7314C21.7272 12.0953 21.7212 10.9136 20.9152 9.87137C20.0032 8.69577 18.5974 8.4958 17.4581 8.45944C17.649 7.63834 17.7066 6.72635 17.6157 5.7386C17.5914 2.45421 15.1493 0.0939265 11.7589 0H11.7104L6.52326 0.00302938H6.46569C4.44779 0.00302938 2.85407 0.605977 1.72695 1.79369C1.03007 2.52692 0.10293 3.8116 0.00597342 5.88404L0.00294289 14.2496C-0.00614677 14.4071 0.00900331 14.5677 0.00597342 14.7313C0.00597342 17.1098 0.387737 18.8247 1.57848 20.0912C2.7662 21.3577 4.52353 22 6.80201 22C6.85048 22 6.90199 22 6.95047 22H14.8918C16.9218 21.9818 18.6398 21.3122 19.8548 20.0609C21.0697 18.8126 21.7212 17.031 21.7454 14.9131C21.7424 14.9192 21.7333 14.0647 21.7333 13.7314ZM6.94441 4.46605L11.3741 4.45999C12.4164 4.47817 13.2526 5.41138 13.2345 6.45669C13.2163 7.48988 12.374 8.24432 11.3438 8.24432C11.3347 8.24432 6.88078 8.24735 6.88078 8.24735C5.8385 8.2322 5.00528 7.37171 5.02043 6.3264C5.04164 5.28109 5.8991 4.45393 6.94441 4.46605ZM15.2736 16.9128H6.41115C5.36584 16.9128 4.5205 16.0675 4.5205 15.0222C4.5205 13.9769 5.36584 13.1315 6.41115 13.1315H15.2736C16.3189 13.1315 17.1642 13.9769 17.1642 15.0222C17.1642 16.0645 16.3189 16.9128 15.2736 16.9128Z" fill="white"/>
</svg>
