<svg width="33" height="32" viewBox="0 0 33 32" fill="none" xmlns="http://www.w3.org/2000/svg">
<path d="M26.9494 29.5727H2.567C2.43606 29.5727 2.3313 29.4679 2.3313 29.337V2.7416C2.3313 2.61065 2.43606 2.50589 2.567 2.50589H26.9494C27.0803 2.50589 27.1851 2.61065 27.1851 2.7416V29.337C27.1851 29.4679 27.0803 29.5727 26.9494 29.5727Z" stroke="white" stroke-width="0.5" stroke-miterlimit="10"/>
<path d="M3.16063 3.39633H1.23571C1.10476 3.39633 1 3.29157 1 3.16063V1.23571C1 1.10476 1.10476 1 1.23571 1H3.16063C3.29158 1 3.39634 1.10476 3.39634 1.23571V3.16063C3.39634 3.29157 3.29158 3.39633 3.16063 3.39633Z" stroke="white" stroke-width="0.5" stroke-miterlimit="10"/>
<path d="M3.23918 31H1.31426C1.18331 31 1.07855 30.8952 1.07855 30.7643V28.8394C1.07855 28.7084 1.18331 28.6037 1.31426 28.6037H3.23918C3.37013 28.6037 3.47489 28.7084 3.47489 28.8394V30.7643C3.47489 30.8952 3.37013 31 3.23918 31Z" stroke="white" stroke-width="0.5" stroke-miterlimit="10"/>
<path d="M28.2021 3.65387H26.2771C26.1462 3.65387 26.0414 3.54912 26.0414 3.41817V1.49324C26.0414 1.3623 26.1462 1.25754 26.2771 1.25754H28.2021C28.333 1.25754 28.4378 1.3623 28.4378 1.49324V3.41817C28.4334 3.54912 28.3287 3.65387 28.2021 3.65387Z" stroke="white" stroke-width="0.5" stroke-miterlimit="10"/>
<path d="M28.2807 30.8167H26.3558C26.2248 30.8167 26.1201 30.7119 26.1201 30.581V28.6561C26.1201 28.5251 26.2248 28.4203 26.3558 28.4203H28.2807C28.4116 28.4203 28.5164 28.5251 28.5164 28.6561V30.581C28.512 30.7119 28.4073 30.8167 28.2807 30.8167Z" stroke="white" stroke-width="0.5" stroke-miterlimit="10"/>
<path d="M31.5107 14.9328L25.941 12.0694L25.9236 12.0781L26.587 18.3068L28.1846 16.766L29.7341 19.0314L31.0043 18.1628L29.4766 15.8756L31.5107 14.9328Z" fill="white" stroke="white" stroke-width="0.5" stroke-miterlimit="10"/>
<path d="M29.7342 19.1973C29.7255 19.1973 29.7124 19.1973 29.7036 19.1929C29.66 19.1842 29.6207 19.158 29.5945 19.1231L28.1541 17.0236L26.7006 18.4247C26.6526 18.4684 26.5871 18.4858 26.526 18.4596C26.4649 18.4378 26.4212 18.3854 26.4169 18.32L25.7534 12.0956C25.749 12.0345 25.7752 11.9734 25.8276 11.9385L25.8451 11.9254C25.8974 11.8905 25.9629 11.8861 26.0153 11.9166L31.5806 14.78C31.6373 14.8106 31.6722 14.8673 31.6722 14.9328C31.6722 14.9983 31.6329 15.055 31.5762 15.0812L29.7211 15.9411L31.1397 18.0624C31.1921 18.141 31.1702 18.2414 31.096 18.2938L29.8302 19.1624C29.804 19.1886 29.7691 19.1973 29.7342 19.1973ZM28.1847 16.5958C28.189 16.5958 28.1977 16.5958 28.2021 16.5958C28.2501 16.6002 28.2938 16.6264 28.3243 16.67L29.7822 18.7957L30.773 18.1148L29.337 15.9673C29.3108 15.928 29.3021 15.8756 29.3152 15.8276C29.3283 15.7796 29.3632 15.7403 29.4068 15.7228L31.1266 14.9241L26.1201 12.3488L26.7137 17.9446L28.0624 16.6438C28.0974 16.6133 28.141 16.5958 28.1847 16.5958Z" fill="#0D0802" stroke="white" stroke-width="0.5" stroke-miterlimit="10"/>
</svg>
