<svg width="33" height="28" viewBox="0 0 33 28" fill="none" xmlns="http://www.w3.org/2000/svg">
<path d="M26.0724 23.2356C25.8472 23.0939 25.5493 23.1593 25.4077 23.3845C24.2018 25.2842 22.1423 26.4175 19.8975 26.4175H7.4861C3.89015 26.4175 0.966182 23.4935 0.966182 19.8975V8.33968C0.966182 8.07452 0.751879 7.85659 0.483092 7.85659C0.217936 7.85659 0 8.07089 0 8.33968V19.8975C0 24.0238 3.35621 27.38 7.48246 27.38H19.8939C22.4692 27.38 24.8338 26.0797 26.2177 23.9003C26.3666 23.6751 26.2976 23.3772 26.0724 23.2356ZM21.8335 10.421L18.1577 14.0968C17.9688 14.2857 17.9688 14.5908 18.1577 14.7797C18.2521 14.8741 18.3756 14.9213 18.4991 14.9213C18.6226 14.9213 18.7461 14.8741 18.8406 14.7797L22.5164 11.1038C22.7053 10.915 22.7053 10.6098 22.5164 10.421C22.3275 10.2321 22.0224 10.2321 21.8335 10.421ZM32.2327 2.38276L30.551 0.701027C29.6211 -0.228832 28.1065 -0.228832 27.1766 0.701027L25.4331 2.44451C24.0165 0.886274 22.0297 0 19.9012 0H7.48973C5.76804 0 4.0863 0.599323 2.75689 1.68537C1.44564 2.75689 0.526679 4.25701 0.17435 5.90243C0.119866 6.16395 0.283317 6.41821 0.54484 6.47633C0.57753 6.48359 0.613853 6.48722 0.646544 6.48722C0.868112 6.48722 1.06789 6.33103 1.11874 6.10583C1.42748 4.67109 2.22658 3.36711 3.37074 2.43362C4.52943 1.4856 5.99324 0.966183 7.49336 0.966183H19.9048C21.7718 0.966183 23.5153 1.75075 24.7539 3.12738L19.6251 8.25614H6.17485C5.90969 8.25614 5.69176 8.47044 5.69176 8.73923C5.69176 9.00438 5.90606 9.22232 6.17485 9.22232H18.6589L16.3452 11.5361H6.17122C5.90606 11.5361 5.68813 11.7504 5.68813 12.0192C5.68813 12.2843 5.90243 12.5023 6.17122 12.5023H15.379L12.386 15.4952C11.5179 16.3633 10.8096 17.3622 10.2793 18.4664L8.90631 21.3178C8.52492 22.106 8.68111 23.0177 9.30223 23.6388C9.69451 24.0311 10.2067 24.2381 10.7297 24.2381C11.0276 24.2381 11.3327 24.1691 11.6196 24.0311L13.0035 23.3664L14.4709 22.6617C15.5751 22.1314 16.574 21.4195 17.4421 20.555L26.4175 11.5797V19.9048C26.4175 20.4315 26.3557 20.9582 26.2286 21.4667C26.1632 21.7246 26.323 21.9861 26.5809 22.0515C26.6209 22.0624 26.6572 22.066 26.6971 22.066C26.9151 22.066 27.1112 21.9171 27.1657 21.6991C27.3074 21.1143 27.38 20.5114 27.38 19.9084V10.6207L28.7203 9.28043L32.2291 5.77167C33.1626 4.82728 33.1626 3.31262 32.2327 2.38276ZM11.2019 23.1593C10.697 23.4027 10.243 23.2102 9.98146 22.9523C9.72357 22.6944 9.53106 22.2367 9.77442 21.7318L10.1812 20.8855C10.519 21.1579 10.8496 21.4521 11.1656 21.7645C11.4816 22.0805 11.7758 22.4074 12.0446 22.7489L11.2019 23.1593ZM14.0532 21.7899L12.9381 22.3275C12.6076 21.8989 12.2444 21.4848 11.8484 21.0889C11.4562 20.6966 11.0384 20.3298 10.6098 19.9992L11.1474 18.8841C11.5179 18.1141 11.9828 17.4022 12.5349 16.7556L16.1817 20.4024C15.5352 20.9509 14.8233 21.4158 14.0532 21.7899ZM16.8864 19.7414L13.196 16.051L24.0093 5.23772L27.6996 8.9281L16.8864 19.7414ZM28.3825 8.24524L24.6921 4.55486L25.8835 3.36348L29.5739 7.05385L28.3825 8.24524ZM31.5498 5.07791L30.2568 6.37099L26.5664 2.68061L27.8595 1.38752C28.1355 1.11147 28.5024 0.973447 28.8656 0.973447C29.2288 0.973447 29.5921 1.11147 29.8717 1.38752L31.5535 3.06926C32.1056 3.62137 32.1056 4.52217 31.5498 5.07791ZM6.17122 5.94602H21.2197C21.4848 5.94602 21.7028 5.73171 21.7028 5.46292C21.7028 5.19777 21.4885 4.97983 21.2197 4.97983H6.17122C5.90606 4.97983 5.68813 5.19414 5.68813 5.46292C5.68813 5.73171 5.90243 5.94602 6.17122 5.94602Z" fill="white"/>
</svg>
