<svg width="24" height="28" viewBox="0 0 24 28" fill="none" xmlns="http://www.w3.org/2000/svg">
<path d="M23.9914 10.5051C23.9914 10.298 23.9094 10.091 23.7584 9.93996L20.7945 6.97609V0.79813C20.7945 0.358079 20.4365 0 19.9964 0H3.99496C3.55491 0 3.19683 0.358079 3.19683 0.79813V6.97178L0.232968 9.93564C0.228654 9.93996 0.228652 9.93996 0.224338 9.94427C0.0733403 10.0996 0 10.3024 0 10.5008V24.9017C0 26.2261 1.07855 27.3004 2.3987 27.3004H21.6013C22.9258 27.3004 24 26.2218 24 24.9017L23.9914 10.5051ZM22.0586 10.5051L20.7902 11.7735V9.23674L22.0586 10.5051ZM19.1896 1.60057V7.30828V13.3784L14.8582 17.7099H9.12026L4.78878 13.3784V7.30828V1.60057H19.1896ZM3.19252 11.7735L1.92414 10.5051L3.19252 9.23674V11.7735ZM1.59194 24.5738V12.4379L7.66205 18.508L1.59194 24.5738ZM2.72227 25.7084L9.12026 19.3061H14.8582L21.2562 25.7084H2.72227ZM22.3908 24.5738L16.3207 18.5037L22.3908 12.4336V24.5738Z" fill="white"/>
<path d="M8.8873 14.6166C10.6906 15.7728 12.9038 15.8936 14.9617 14.9488C15.3975 14.746 15.5916 14.2283 15.3888 13.7926C15.1861 13.3568 14.6683 13.1627 14.2326 13.3654C12.7269 14.0557 11.1221 13.9781 9.8278 13.1497C8.56373 12.3387 7.81306 10.9667 7.81306 9.47402C7.81306 7.06669 9.77171 5.11235 12.1747 5.11235C14.5821 5.11235 16.5364 7.071 16.5364 9.47402C16.5364 9.95722 16.1438 10.3455 15.6649 10.3455C15.2249 10.3455 14.815 10.0133 14.7935 9.48697C14.7935 9.48265 14.7935 9.47834 14.7935 9.47402C14.7935 8.02876 13.62 6.85529 12.1747 6.85529C10.7295 6.85529 9.556 8.02876 9.556 9.47402C9.556 10.9193 10.7295 12.0928 12.1747 12.0928C12.8434 12.0928 13.4561 11.8382 13.9177 11.4241C14.3793 11.8382 14.9919 12.0928 15.6649 12.0928C17.1102 12.0928 18.2837 10.9193 18.2837 9.47402C18.2837 6.10462 15.5441 3.36509 12.1747 3.36509C8.80533 3.36509 6.0658 6.10462 6.0658 9.47402C6.0658 11.5621 7.11847 13.4862 8.8873 14.6166ZM12.1747 10.3412C11.6915 10.3412 11.3033 9.94859 11.3033 9.46971C11.3033 8.99083 11.6959 8.59824 12.1747 8.59824C12.6234 8.59824 12.9901 8.93475 13.0419 9.37048C13.0289 9.44814 13.0246 9.53011 13.0376 9.61208C12.9685 10.0262 12.6062 10.3412 12.1747 10.3412Z" fill="white"/>
</svg>
