<svg width="33" height="30" viewBox="0 0 33 30" fill="none" xmlns="http://www.w3.org/2000/svg">
<path d="M14.4388 13.0117C13.3077 11.3858 12.8924 10.5463 11.2886 12.9852L10.5287 13.9616C10.078 14.5448 9.17669 14.4609 8.70836 13.8909L8.73487 13.9881C7.45358 12.6361 7.86889 11.7967 6.01323 14.0323L4.96169 15.3799C4.61707 15.8217 4.93077 16.4668 5.49188 16.4668H15.6936C16.2503 16.4668 16.564 15.8305 16.2326 15.3887L14.4388 13.0117Z" fill="white"/>
<path d="M3.02207 0.0176734C1.36082 0.0176734 0 1.37849 0 3.03975V18.1457C0 19.807 1.36082 21.1678 3.02207 21.1678H18.128C19.7893 21.1678 21.1501 19.807 21.1501 18.1457L21.2075 1.11781C21.2075 0.49926 20.7127 0 20.0986 0C16.1354 0.00441824 3.02207 0.0176734 3.02207 0.0176734ZM18.1324 18.8217H3.02649C2.65536 18.8217 2.35492 18.5213 2.35492 18.1501V3.04417C2.35492 2.67303 2.65536 2.37259 3.02649 2.37259H18.0397C18.4638 2.37259 18.804 2.71722 18.804 3.13695V18.1501C18.804 18.5168 18.5036 18.8217 18.1324 18.8217Z" fill="white"/>
<path d="M7.86886 9.28715C8.56185 9.28715 9.12363 8.72536 9.12363 8.03237C9.12363 7.33937 8.56185 6.77759 7.86886 6.77759C7.17586 6.77759 6.61407 7.33937 6.61407 8.03237C6.61407 8.72536 7.17586 9.28715 7.86886 9.28715Z" fill="white"/>
<path d="M26.1118 20.1693L23.156 3.5346C23.0367 2.85419 22.3872 2.40353 21.7068 2.52724L21.6273 2.5405V8.61116L23.7966 20.589C23.8629 20.9557 23.6199 21.3048 23.2532 21.371L8.39022 24.0617C8.02351 24.128 7.67447 23.885 7.60819 23.5183L7.21497 21.3489H4.82471L5.29304 23.938C5.58906 25.5728 7.17079 26.6729 8.80554 26.3769L23.6685 23.6862C25.3121 23.3857 26.4078 21.804 26.1118 20.1693Z" fill="white"/>
<path d="M32.3592 18.4682L24.9233 4.5508C24.6096 3.96759 23.9557 3.64948 23.3062 3.76435L23.7259 5.43887L31.259 19.2547C31.6788 20.0897 30.9012 20.6111 30.5963 20.7746L18.2031 27.4461C17.8983 27.6096 17.0279 28.0426 16.6082 27.2075L15.539 25.3828L13.8423 25.6523L15.0043 27.8084C15.7378 29.1736 17.4565 29.6862 18.8217 28.9527L31.2149 22.2812C32.5801 21.5522 33.097 19.8335 32.3592 18.4682Z" fill="white"/>
</svg>
