<svg width="29" height="29" viewBox="0 0 29 29" fill="none" xmlns="http://www.w3.org/2000/svg">
<path d="M21.3011 26.2387H3.55151C3.11452 26.2387 2.76096 25.8851 2.76096 25.448V7.69599C2.76096 7.25894 3.11452 6.90533 3.55151 6.90533H14.3967C14.8337 6.90533 15.1873 6.55172 15.1873 6.11468V4.93465C15.1873 4.4976 14.8337 4.14399 14.3967 4.14399H3.55151C1.59699 4.14399 0 5.7412 0 7.69599V25.448C0 27.4028 1.60096 29 3.55151 29H21.3011C23.2556 29 24.8526 27.4028 24.8526 25.448V14.6013C24.8526 14.1643 24.499 13.8107 24.0621 13.8107H22.8822C22.4452 13.8107 22.0916 14.1643 22.0916 14.6013V25.448C22.0956 25.8851 21.7381 26.2387 21.3011 26.2387ZM10.2295 20.4498L10.2612 20.565C8.75562 18.9758 9.24425 17.9904 7.06329 20.6167L5.82781 22.2019C5.4226 22.7224 5.79205 23.4813 6.45151 23.4813H18.4369C19.0884 23.4813 19.4618 22.7344 19.0685 22.2139L16.963 19.4128C15.6362 17.5017 15.1436 16.5164 13.2605 19.385L12.3667 20.5332C11.8384 21.2126 10.7816 21.1133 10.2295 20.4498ZM24.8566 3.34936V0.790657C24.8566 0.353611 24.503 0 24.066 0H22.8862C22.4492 0 22.0956 0.353611 22.0956 0.790657V3.34936C22.0956 3.78641 21.7421 4.14002 21.3051 4.14002H18.7507C18.3137 4.14002 17.9601 4.49363 17.9601 4.93068C17.9601 5.30018 17.9601 5.7412 17.9562 6.1107C17.9562 6.54775 18.3097 6.90136 18.7467 6.90136H21.3051C21.7421 6.90136 22.0956 7.25497 22.0956 7.69201V10.2467C22.0956 10.6838 22.4492 11.0374 22.8862 11.0374C23.2596 11.0374 23.7005 11.0374 24.074 11.0334C24.511 11.0334 24.8605 10.6798 24.8605 10.2428V7.69201C24.8605 7.25497 25.2141 6.90136 25.6511 6.90136H28.2094C28.6464 6.90136 29 6.54775 29 6.1107V4.93068C29 4.49363 28.6464 4.14002 28.2094 4.14002H25.6511C25.2101 4.14002 24.8566 3.78641 24.8566 3.34936Z" fill="white"/>
<path d="M9.87994 16.0661C10.7499 16.0661 11.4551 15.3608 11.4551 14.4909C11.4551 13.6209 10.7499 12.9157 9.87994 12.9157C9.00998 12.9157 8.30475 13.6209 8.30475 14.4909C8.30475 15.3608 9.00998 16.0661 9.87994 16.0661Z" fill="white"/>
</svg>
