<svg width="43" height="44" viewBox="0 0 43 44" fill="none" xmlns="http://www.w3.org/2000/svg">
<path d="M17.9093 14.2935C18.0908 12.6959 17.6283 11.0342 16.4867 9.73338C14.3401 7.29531 10.6106 7.04852 8.16915 9.1912C5.72764 11.3339 5.48085 15.0633 7.62696 17.5087C9.33767 19.458 11.9898 19.9034 14.2614 18.954L14.9197 20.0429C12.2797 21.2187 8.96108 20.3763 6.95553 18.0911C4.4906 15.2824 4.76687 10.9877 7.57948 8.5193C10.3882 6.05436 14.6829 6.33063 17.1512 9.14324C18.3649 10.5261 18.9141 12.2708 18.8212 13.9773L17.9093 14.2935Z" stroke="white" stroke-width="0.45" stroke-miterlimit="10"/>
<path d="M36.3908 33.7213C34.0938 35.7372 32.3086 36.2874 31.215 36.3966C30.5624 36.4645 29.9582 36.241 29.5537 35.78C28.9926 35.2352 28.6925 34.98 28.3279 34.7536C28.1121 34.618 27.932 34.4995 27.7729 34.397C26.9674 33.8731 26.7765 33.7502 24.9761 33.3456C23.9632 33.1212 22.8102 32.3904 21.6998 31.6846C20.8649 31.1588 20.0834 30.6622 19.492 30.4689L13.425 29.5836C12.8019 29.4804 12.2999 29.2157 11.9658 28.8035C11.5705 28.3137 11.4322 27.6675 11.5572 26.8801C11.7437 25.7138 12.6242 25.0309 13.9702 25.0045L19.2407 25.2265L11.8425 16.7965L10.4369 15.1949C10.0461 14.7495 9.85162 14.1734 9.88692 13.5753C9.92612 12.9739 10.1972 12.4318 10.6464 12.0375C11.5566 11.2387 12.9223 11.3057 13.7523 12.1884L16.7692 15.626C16.8619 15.1644 17.1038 14.7308 17.4827 14.3983C18.2523 13.7229 19.364 13.6738 20.1838 14.206C20.2642 13.7067 20.5089 13.2292 20.9191 12.8692C21.3644 12.4784 21.9406 12.2839 22.5386 12.3192C22.9347 12.345 23.3021 12.4721 23.6236 12.6809C23.7149 12.2412 23.9587 11.8336 24.3533 11.4873C25.3377 10.6234 26.6736 10.6957 27.5238 11.6645L34.017 19.0632C34.562 19.6844 35.0344 20.4039 35.4238 21.21C36.31 23.0393 36.9625 24.2162 38.0588 25.5914C38.4502 26.0846 38.8948 26.5519 39.3849 27C39.969 27.5316 40.1545 28.3576 39.873 29.1163C39.4849 30.1554 38.5745 31.8049 36.3908 33.7213ZM12.8211 26.248C12.5164 26.5155 12.4607 26.8617 12.4355 27.0221C12.3497 27.5469 12.4261 27.957 12.6578 28.2446C12.9032 28.5479 13.2862 28.6612 13.563 28.7087L19.6628 29.5999C19.6848 29.6013 19.7102 29.6066 19.7317 29.6154C20.4356 29.8344 21.2808 30.3719 22.1793 30.9388C23.2261 31.6036 24.3121 32.2895 25.1724 32.4818C27.0525 32.9064 27.3407 33.0614 28.2559 33.6551C28.4115 33.7536 28.5882 33.8683 28.7966 34.0034C29.2214 34.2668 29.5602 34.5504 30.1869 35.1621C30.1938 35.1699 30.2006 35.1777 30.2109 35.1894C30.4303 35.4394 30.7581 35.5529 31.1213 35.5176C31.9108 35.4402 33.5701 35.0143 35.8007 33.0568C37.8437 31.2638 38.6785 29.7566 39.0238 28.8105C39.1806 28.3825 39.0915 27.9421 38.7889 27.6683C38.2499 27.1801 37.7709 26.6738 37.3487 26.1454C36.201 24.7116 35.526 23.4854 34.6103 21.5989C34.2567 20.8651 33.828 20.211 33.3377 19.6524L26.8446 12.2537C26.3097 11.6443 25.5572 11.6063 24.9283 12.1583C24.6197 12.4291 24.4637 12.732 24.4646 13.0561C24.4666 13.3656 24.6039 13.6876 24.8679 13.9884L26.2632 15.5783C26.4244 15.7619 26.4096 16.0445 26.2221 16.2091C26.0346 16.3737 25.7598 16.3521 25.5952 16.1646L23.3977 13.6606C23.1611 13.391 22.8328 13.2297 22.47 13.2023C22.1106 13.1789 21.7641 13.2963 21.4946 13.5328C20.936 14.0231 20.8805 14.8739 21.3708 15.4325L23.5683 17.9365C23.7294 18.1201 23.7147 18.4027 23.5311 18.5639C23.3475 18.725 23.0648 18.7102 22.9037 18.5266L19.9652 15.1862C19.475 14.6276 18.6241 14.5721 18.0655 15.0624C17.5069 15.5526 17.4514 16.4034 17.9417 16.962L20.8802 20.3025C20.9591 20.3923 20.9959 20.5052 20.9882 20.6226C20.9806 20.7399 20.9255 20.8505 20.8357 20.9294C20.6521 21.0905 20.3694 21.0758 20.2049 20.8882L13.0878 12.7786C12.5986 12.2605 11.78 12.2182 11.2292 12.7016C10.9597 12.9382 10.7983 13.2665 10.771 13.6293C10.7476 13.9887 10.8649 14.3352 11.1015 14.6047L20.591 25.4176C20.7075 25.5504 20.7357 25.7401 20.6587 25.9045C20.5782 26.065 20.417 26.165 20.2371 26.1569L13.9603 25.8914C13.3961 25.9025 13.0438 26.0526 12.8211 26.248Z" fill="white"/>
</svg>
