<svg width="26" height="26" viewBox="0 0 26 26" fill="none" xmlns="http://www.w3.org/2000/svg">
<path d="M8.98608 19.876H5.07053C2.27508 19.876 0 22.1511 0 24.9465C0 25.5082 0.453746 25.9619 1.01538 25.9619H13.0444C13.6029 25.9619 14.0598 25.5082 14.0598 24.9465C14.0566 22.1511 11.7815 19.876 8.98608 19.876ZM2.19893 23.9311C2.61777 22.7508 3.7442 21.9036 5.06736 21.9036H8.98291C10.3061 21.9036 11.4325 22.7508 11.8513 23.9311H2.19893Z" fill="white"/>
<path d="M16.0017 0C10.4933 0 6.01292 4.48035 6.01292 9.98876C6.01292 10.3283 6.03196 10.6646 6.06369 11.001C4.28996 11.4325 2.9668 13.0349 2.9668 14.9419C2.9668 17.1789 4.78495 18.9971 7.02195 18.9971C8.11666 18.9971 9.10982 18.5592 9.83962 17.8548C11.5721 19.216 13.7139 19.9775 15.9985 19.9775C21.5069 19.9775 25.9873 15.4972 25.9873 9.98876C25.9904 4.48035 21.5101 0 16.0017 0ZM7.02513 16.9695C5.90821 16.9695 4.99755 16.0588 4.99755 14.9419C4.99755 13.825 5.90821 12.9143 7.02513 12.9143C7.06003 12.9143 7.09494 12.9143 7.12667 12.9175C7.14253 12.9207 7.1584 12.9207 7.17426 12.9207C8.22137 12.9968 9.05271 13.8758 9.05271 14.9419C9.05271 16.0588 8.14204 16.9695 7.02513 16.9695ZM12.5082 17.144V16.2587C12.5082 14.3485 14.063 12.7969 15.97 12.7969C17.8801 12.7969 19.4318 14.3485 19.4318 16.2587V17.1694C18.391 17.6675 17.2297 17.9468 16.0017 17.9468C14.7705 17.9499 13.5807 17.6707 12.5082 17.144ZM21.4403 15.7954C21.2055 12.9841 18.8416 10.7693 15.97 10.7693C13.7488 10.7693 11.8323 12.0957 10.9692 13.9963C10.6265 12.5653 9.52232 11.4262 8.11031 11.0327C8.06589 10.6868 8.04368 10.3378 8.04368 9.98876C8.04368 5.60043 11.6165 2.02758 16.0049 2.02758C20.3932 2.02758 23.966 5.59726 23.966 9.98876C23.9629 12.2765 22.9919 14.3422 21.4403 15.7954Z" fill="white"/>
<path d="M15.9668 3.58872C14.1486 3.58872 12.67 5.06736 12.67 6.88552C12.67 8.70368 14.1486 10.1823 15.9668 10.1823C17.7849 10.1823 19.2636 8.70368 19.2636 6.88552C19.2604 5.06736 17.7818 3.58872 15.9668 3.58872ZM15.9668 8.15474C15.2687 8.15474 14.7007 7.58676 14.7007 6.88552C14.7007 6.18745 15.2687 5.61947 15.9668 5.61947C16.6649 5.61947 17.2328 6.18745 17.2328 6.88552C17.2328 7.58359 16.6649 8.15474 15.9668 8.15474Z" fill="white"/>
</svg>
