<svg width="21" height="23" viewBox="0 0 21 23" fill="none" xmlns="http://www.w3.org/2000/svg">
<path d="M0.55774 21.3212C1.60565 22.6799 3.76556 22.7633 5.38389 21.5199C6.04725 21.0071 6.50551 20.3566 6.75868 19.674C6.90288 19.3856 6.99902 18.9786 6.99902 18.5043V8.04444L19.5996 5.66661V11.1914C19.5996 13.1398 18.1094 13.5852 17.5839 13.6878L17.4461 13.7134L17.3852 13.7198H17.3916C16.7699 13.8384 16.1418 14.0948 15.5778 14.5274C13.953 15.7772 13.4852 17.8922 14.5331 19.251C15.5842 20.613 17.7473 20.6995 19.3656 19.4497C20.186 18.8184 20.7148 17.9659 20.891 17.0975C20.9519 16.8924 21 16.6585 21 16.3989V2.80809L20.9776 2.56775L21 2.43956V1.03914C21 0.26683 20.3719 -0.168999 19.5996 0.0617334L6.99902 2.44918C6.22671 2.68311 5.5986 3.50029 5.5986 4.27581V5.67623L5.61142 5.7243L5.5986 5.84607V13.2551C5.5986 15.2132 4.10205 15.6554 3.57649 15.7515L3.50278 15.774L3.38742 15.7868L3.40024 15.7932C2.78495 15.9086 2.16325 16.1681 1.60244 16.6008C-0.0222975 17.8474 -0.486965 19.9624 0.55774 21.3212Z" fill="white"/>
</svg>
