<svg width="30" height="27" viewBox="0 0 30 27" fill="none" xmlns="http://www.w3.org/2000/svg">
<path d="M5.90731 17.9353L9.93063 10.925C10.1059 10.624 10.5402 10.6202 10.7155 10.9211L14.7769 17.9124L18.7355 24.7285C18.9564 25.1056 18.6821 25.5819 18.244 25.5819L10.3612 25.6009L2.69932 25.62C2.16211 25.62 1.82683 25.0409 2.09353 24.5761L5.90731 17.9353Z" stroke="white" stroke-width="2" stroke-miterlimit="10" stroke-linecap="round"/>
<path d="M15.6646 16.0646C15.7256 16.0646 15.7866 16.0722 15.8475 16.0722C20.008 16.0722 23.3836 12.7004 23.3836 8.53612C23.3836 4.37563 20.0118 1 15.8475 1C11.6832 1 8.3114 4.37182 8.3114 8.53612" stroke="white" stroke-width="2" stroke-miterlimit="10" stroke-linecap="round"/>
<path d="M20.1375 22.2673H27.9327C28.4661 22.2673 28.8966 21.8367 28.8966 21.3033V8.6771C28.8966 8.13608 28.4585 7.69794 27.9175 7.69794H25.1629" stroke="white" stroke-width="2" stroke-miterlimit="10" stroke-linecap="round"/>
</svg>
