<svg width="32" height="28" viewBox="0 0 32 28" fill="none" xmlns="http://www.w3.org/2000/svg">
<path d="M10.7227 18.675C10.7263 18.675 10.7263 18.675 10.7263 18.675H26.7527C27.1469 18.675 27.4946 18.4134 27.6021 18.0335L31.1392 5.65886C31.2145 5.39366 31.1607 5.10696 30.9959 4.88477C30.8274 4.66258 30.5658 4.53356 30.2899 4.53356H8.68353L8.05279 1.69166C7.9632 1.2867 7.60483 1 7.18911 1H1.88518C1.3978 1 1 1.39421 1 1.88518C1 2.37615 1.39421 2.77037 1.88518 2.77037H6.47953C6.59063 3.27567 9.50421 16.3778 9.67264 17.134C8.7337 17.5425 8.0743 18.4779 8.0743 19.5673C8.0743 21.0295 9.2641 22.2193 10.7263 22.2193H26.7563C27.2437 22.2193 27.6415 21.8251 27.6415 21.3341C27.6415 20.8431 27.2473 20.4489 26.7563 20.4489H10.7263C10.2389 20.4489 9.84108 20.0511 9.84108 19.5638C9.84108 19.0728 10.2353 18.6786 10.7227 18.675ZM29.118 6.30034L26.0862 16.9082H11.4323L9.07416 6.30034H29.118Z" fill="white" stroke="white" stroke-width="0.25" stroke-miterlimit="10"/>
<path d="M9.84106 24.8641C9.84106 26.3263 11.0309 27.5161 12.493 27.5161C13.9552 27.5161 15.145 26.3263 15.145 24.8641C15.145 23.4019 13.9552 22.2121 12.493 22.2121C11.0309 22.2121 9.84106 23.4019 9.84106 24.8641ZM12.493 23.9789C12.9804 23.9789 13.3782 24.3767 13.3782 24.8641C13.3782 25.3515 12.9804 25.7493 12.493 25.7493C12.0056 25.7493 11.6078 25.3515 11.6078 24.8641C11.6078 24.3767 12.0056 23.9789 12.493 23.9789Z" fill="white" stroke="white" stroke-width="0.25" stroke-miterlimit="10"/>
<path d="M22.334 24.8641C22.334 26.3263 23.5238 27.5161 24.9859 27.5161C26.4481 27.5161 27.6379 26.3263 27.6379 24.8641C27.6379 23.4019 26.4481 22.2121 24.9859 22.2121C23.5238 22.2121 22.334 23.4019 22.334 24.8641ZM24.9859 23.9789C25.4733 23.9789 25.8711 24.3767 25.8711 24.8641C25.8711 25.3515 25.4733 25.7493 24.9859 25.7493C24.4986 25.7493 24.1008 25.3515 24.1008 24.8641C24.1008 24.3767 24.4986 23.9789 24.9859 23.9789Z" fill="white" stroke="white" stroke-width="0.25" stroke-miterlimit="10"/>
</svg>
