<svg width="35" height="32" viewBox="0 0 35 32" fill="none" xmlns="http://www.w3.org/2000/svg">
<path d="M9.10355 14C6.74855 14 4.83331 15.9152 4.83331 18.2702C4.83331 20.6252 6.74855 22.5405 9.10355 22.5405C11.4586 22.5405 13.3738 20.6252 13.3738 18.2702C13.3697 15.9152 11.4544 14 9.10355 14ZM9.10355 19.9101C8.19936 19.9101 7.46368 19.1744 7.46368 18.2661C7.46368 17.3619 8.19936 16.6263 9.10355 16.6263C10.0077 16.6263 10.7434 17.3619 10.7434 18.2661C10.7434 19.1744 10.0077 19.9101 9.10355 19.9101Z" fill="white"/>
<path d="M11.6394 23.7817H6.5677C2.94684 23.7817 0 26.7285 0 30.3494C0 31.0768 0.587723 31.6646 1.31518 31.6646H16.896C17.6194 31.6646 18.2112 31.0768 18.2112 30.3494C18.2071 26.7285 15.2603 23.7817 11.6394 23.7817ZM2.8482 29.0342C3.39071 27.5053 4.84974 26.4079 6.56359 26.4079H11.6353C13.3491 26.4079 14.8082 27.5053 15.3507 29.0342H2.8482Z" fill="white"/>
<path d="M34.1673 9.42823C34.1549 9.38302 34.1385 9.34192 34.1221 9.30082C32.1698 3.88391 26.9831 0 20.9004 0C14.8176 0 9.63086 3.88391 7.67864 9.30082C7.6622 9.34192 7.64576 9.38302 7.63343 9.42823C7.34573 10.2461 7.13612 11.0969 7.0046 11.9764C6.91829 12.5682 7.59233 12.9628 8.06908 12.597C8.22526 12.4778 9.05547 11.7627 9.33906 10.7105H15.6889C15.5944 11.8079 15.5451 12.9299 15.5451 14.0519C15.5451 14.5739 15.5574 15.1 15.578 15.6219C15.615 15.8562 15.6396 16.0905 15.6396 16.333C15.6396 16.3905 15.6314 16.4439 15.6314 16.4973C15.6519 16.7974 15.6643 17.0974 15.6889 17.3933C15.6889 17.3933 15.3355 18.0221 15.1999 18.3139C14.9615 18.8236 15.3601 19.4072 15.9191 19.4072C16.0383 20.2415 16.1903 21.043 16.3712 21.7992C16.5397 22.5184 16.6507 24.109 17.2754 24.5076C18.6276 25.3666 18.9728 26.3653 19.7413 27.7956C20.0743 28.4203 30.8382 28.2066 34.1221 18.803C34.1385 18.7619 34.1549 18.7208 34.1673 18.6756C34.6728 17.2289 34.9482 15.6712 34.9482 14.0519C34.9482 12.4326 34.6728 10.8749 34.1673 9.42823ZM31.6766 8.69666H25.8816C25.524 6.22658 24.9076 4.01131 24.0486 2.43309C27.39 3.34139 30.156 5.65119 31.6766 8.69666ZM18.7837 5.14566C19.503 2.98383 20.3661 2.01388 20.9004 2.01388C21.4346 2.01388 22.2977 2.98383 23.017 5.14566C23.3663 6.18959 23.6417 7.38969 23.8472 8.69255H17.9535C18.1549 7.38969 18.4344 6.18959 18.7837 5.14566ZM10.1282 8.69666C11.6447 5.65529 14.4148 3.34139 17.7562 2.43309C16.8932 4.01131 16.2808 6.22658 15.9232 8.69666H10.1282ZM17.559 14.0478C17.559 12.9011 17.6083 11.7832 17.7069 10.7064H24.0897C24.1842 11.7791 24.2376 12.9011 24.2376 14.0478C24.2376 15.1945 24.1883 16.3165 24.0897 17.3892H17.7069C17.6124 16.3165 17.559 15.1945 17.559 14.0478ZM23.0211 22.95C22.3018 25.1118 21.4388 26.0818 20.9045 26.0818C20.3702 26.0818 19.5071 25.1118 18.7878 22.95C18.4385 21.906 18.1631 20.7059 17.9576 19.4031H23.8513C23.6458 20.7101 23.3663 21.906 23.0211 22.95ZM24.0486 25.6667C24.9117 24.0884 25.524 21.8732 25.8816 19.4031H31.6766C30.156 22.4445 27.39 24.7584 24.0486 25.6667ZM32.4617 17.3892H26.1118C26.2063 16.2919 26.2515 15.1698 26.2515 14.0478C26.2515 12.9258 26.2063 11.8038 26.1118 10.7064H32.4617C32.7699 11.7668 32.9343 12.8888 32.9343 14.0478C32.9343 15.2068 32.7699 16.3288 32.4617 17.3892Z" fill="white"/>
</svg>
