<svg width="27" height="28" viewBox="0 0 27 28" fill="none" xmlns="http://www.w3.org/2000/svg">
<path d="M25.0973 26.51H2.11301C1.49943 26.51 1 26.0106 1 25.397V2.11301C1 1.49942 1.49943 1 2.11301 1H25.0973C25.7109 1 26.2103 1.49942 26.2103 2.11301V25.397C26.2103 26.0106 25.7109 26.51 25.0973 26.51Z" stroke="white" stroke-width="1.5" stroke-miterlimit="10"/>
<path d="M2 6L26 6" stroke="white" stroke-width="1.5" stroke-miterlimit="10" stroke-linecap="round"/>
<path d="M1 17H19" stroke="white" stroke-width="1.5" stroke-miterlimit="10"/>
<path d="M9.02024 18.6007L6.53024 25.8107H3.24023L11.5502 2.89066H15.3102L23.6202 25.8107H20.2602L17.6602 18.6007H9.02024ZM17.0102 16.2907L14.6202 9.69066C14.0802 8.19066 13.7202 6.83066 13.3502 5.51066H13.2402C12.9102 6.87066 12.5202 8.26066 12.0502 9.66066L9.66024 16.2907H17.0102Z" fill="white"/>
</svg>
