<svg width="37" height="29" viewBox="0 0 37 29" fill="none" xmlns="http://www.w3.org/2000/svg">
<path d="M18.2482 26.141C18.3259 25.4947 18.8897 24.9941 19.5069 25.0184C19.7984 25.0281 20.0463 25.1594 20.2261 25.3586C28.0165 16.7372 22.9428 15.9062 23.9245 12.1398C25.329 6.7697 26.9521 4.95211 25.0714 2.85752C24.8333 3.19285 24.4542 3.41154 24.0411 3.39696C23.4239 3.37266 22.9865 2.83322 23.0643 2.18686C23.0983 1.90499 23.2295 1.65228 23.4142 1.45789C21.5723 0.39844 19.3416 3.06163 17.3831 4.07248C11.9109 6.89605 11.3472 3.465 5.74864 6.92521C5.97705 7.14877 6.10827 7.47924 6.05967 7.84858C5.98191 8.49494 5.41817 8.99551 4.80097 8.97121C4.51909 8.96149 4.2761 8.83999 4.10115 8.65046C-0.476824 13.8991 0.519444 19.7989 3.81928 23.7743C4.05741 23.5313 4.37816 23.3758 4.71835 23.3904C5.33555 23.4147 5.77294 23.9541 5.69518 24.6005C5.66116 24.8872 5.52508 25.1399 5.34041 25.3343C8.85408 28.396 13.8694 29.5867 17.9809 27.0061C18.1072 26.9283 18.219 26.8457 18.3405 26.768C18.2627 26.5833 18.219 26.3695 18.2482 26.141Z" stroke="white" stroke-miterlimit="10"/>
<path d="M25.0763 2.85267C25.1977 2.68258 25.2804 2.48332 25.3047 2.26949C25.3824 1.62313 24.945 1.08369 24.3278 1.05939C23.9779 1.04481 23.6523 1.20518 23.4142 1.4579" stroke="white" stroke-miterlimit="10"/>
<path d="M5.75353 6.92521C5.58343 6.75997 5.35502 6.64819 5.08773 6.63848C4.47053 6.61418 3.90678 7.1196 3.82903 7.7611C3.78529 8.11101 3.90192 8.4269 4.10604 8.65045C4.1595 8.58728 4.21295 8.52409 4.26641 8.46092" stroke="white" stroke-miterlimit="10"/>
<path d="M18.3502 26.768C18.5106 27.1033 18.8313 27.3366 19.2299 27.3511C19.8471 27.3754 20.4108 26.87 20.4886 26.2285C20.5274 25.8883 20.4254 25.5822 20.231 25.3586" stroke="white" stroke-miterlimit="10"/>
<path d="M3.82415 23.7791C3.63462 23.9784 3.49854 24.2311 3.46452 24.5178C3.38676 25.1642 3.82415 25.7036 4.44135 25.7279C4.7864 25.7425 5.11201 25.587 5.34528 25.3392" stroke="white" stroke-miterlimit="10"/>
<path d="M35.6464 9.2482C35.593 8.21306 35.3354 6.60931 34.4315 4.81602C34.1885 4.96182 33.8872 5.0007 33.6004 4.88892C33.1144 4.69939 32.8763 4.15023 33.0658 3.66424C33.1339 3.49415 33.2408 3.35807 33.3769 3.26087C31.9967 1.83208 29.3432 1.0545 28.2595 1.00104C27.8026 0.976745 27.443 1.38011 27.5159 1.83208C27.686 2.9304 28.8572 5.36033 29.7466 6.64819C29.9896 6.50239 30.2909 6.46837 30.5727 6.57529C31.0587 6.76482 31.2969 7.31399 31.1073 7.79997C31.0879 7.84857 31.0636 7.89231 31.0393 7.93605C32.1376 8.7768 33.5713 9.52036 34.5432 9.98204C35.0681 10.2348 35.6756 9.83138 35.6464 9.2482Z" stroke="white" stroke-miterlimit="10"/>
<path d="M34.4315 4.81604C34.6016 4.71398 34.7474 4.55847 34.8251 4.35435C35.0147 3.86837 34.7765 3.32407 34.2905 3.12967C33.9747 3.00332 33.6296 3.06649 33.3769 3.25603" stroke="white" stroke-miterlimit="10"/>
<path d="M29.7465 6.64819C29.5716 6.75025 29.4306 6.90576 29.348 7.10988C29.1585 7.59586 29.3966 8.14017 29.8826 8.33456C30.32 8.50465 30.8011 8.3297 31.0344 7.93605" stroke="white" stroke-miterlimit="10"/>
</svg>
