<svg width="28" height="18" viewBox="0 0 28 18" fill="none" xmlns="http://www.w3.org/2000/svg">
<path fill-rule="evenodd" clip-rule="evenodd" d="M9.29551 12.3635L13.2695 9.18892C13.4865 9.01763 13.4865 8.68646 13.2695 8.51136L9.2308 5.28724C9.10138 5.18066 8.90725 5.27583 8.90725 5.44331V12.1732C8.90344 12.3788 9.13944 12.4892 9.29551 12.3635ZM2.80541 0H20.4334C20.7189 0 20.951 0.232197 20.951 0.517686V3.86741C20.951 4.06535 21.1566 4.19858 21.3393 4.11103L26.4324 1.6939C26.8283 1.50738 27.2813 1.79287 27.2813 2.23062V14.99C27.2813 15.4468 26.8017 15.7475 26.3867 15.5458L21.4345 13.1134C21.2099 13.003 20.951 13.1667 20.951 13.4141V16.3147C20.951 16.7829 20.5704 17.1598 20.106 17.1598H13.0107H11.8306H9.67235H8.49234H2.80922C1.30184 17.1598 8.32668e-06 15.9797 8.32668e-06 14.48V2.77875C-0.00379818 1.29421 1.29803 0 2.80541 0Z" fill="white"/>
</svg>
